<?xml version="1.0" encoding="UTF-8"?>
<svg id="Layer_2" data-name="Layer 2" xmlns="http://www.w3.org/2000/svg" viewBox="0 0 341.09 344.77">
  <g id="Layer_1-2" data-name="Layer 1">
    <g>
      <path d="M123.46,287.27c-14.73-6.16-28.25-15.27-39.86-27.01-.84-.85-1.68-1.73-2.51-2.6l-40.21,26.71c22.91,27.07,53.97,46.89,89.34,55.55v-50.06c-2.28-.79-4.54-1.66-6.76-2.59Z"/>
      <path d="M300.2,284.38c-22.9,27.07-53.95,46.88-89.31,55.55v-50.07c17.35-6.06,33.24-16.07,46.61-29.58.85-.85,1.68-1.73,2.51-2.6l40.2,26.71Z"/>
      <path d="M300.2,60.4l-40.2,26.71c-.82-.88-1.66-1.75-2.51-2.61-13.37-13.5-29.26-23.51-46.61-29.58V4.85c35.36,8.67,66.42,28.47,89.31,55.55Z"/>
      <path d="M130.22,4.85v50.05c-17.35,6.07-33.26,16.08-46.62,29.59-.85.86-1.69,1.73-2.51,2.61l-40.21-26.72C63.8,33.32,94.85,13.51,130.22,4.85Z"/>
      <path d="M341.09,172.38c0,34.99-10.31,67.55-28.04,94.73l-39.75-26.42-83.76-55.68v158.69c-6.24.71-12.58,1.06-19,1.06s-12.75-.36-18.99-1.06v-158.7l-83.78,55.68-39.75,26.42C10.31,239.93,0,207.37,0,172.38s10.31-67.55,28.03-94.73l39.75,26.42,83.78,55.69V1.06c6.24-.71,12.57-1.06,18.99-1.06s12.77.36,19,1.06v158.69l83.76-55.68,39.75-26.42c17.71,27.19,28.04,59.74,28.04,94.73Z"/>
    </g>
  </g>
</svg>