<svg width="89" height="64" viewBox="0 0 89 64" fill="none" xmlns="http://www.w3.org/2000/svg">
<path d="M2.9852 61.7773C2.21321 61.7773 1.64114 61.2969 1.80975 60.7906L19.957 6.67382C20.9168 3.81148 24.7021 1.77734 29.0715 1.77734H85.575C86.347 1.77734 86.9191 2.25777 86.7505 2.76408L68.6045 56.8809C67.6446 59.7432 63.8593 61.7773 59.4899 61.7773H2.9852Z" fill="url(#paint0_linear_367_9)"/>
<path d="M85.575 0C86.3035 1.554e-06 87.0661 0.222829 87.658 0.719727C88.2706 1.23403 88.8118 2.19744 88.4364 3.3252L88.4354 3.3291L70.2889 57.4463C69.6242 59.4279 68.0473 60.9574 66.1668 61.9678C64.2711 62.9863 61.9389 63.5547 59.4901 63.5547H2.98519C2.2567 63.5547 1.49409 63.3319 0.902183 62.835C0.289605 62.3207 -0.251554 61.3572 0.123862 60.2295L0.124839 60.2256L18.2723 6.1084C18.937 4.12677 20.5139 2.59727 22.3944 1.58691C24.29 0.568459 26.6224 6.10445e-05 29.0711 0H85.575ZM29.0711 3.55469C27.1508 3.55475 25.4061 4.00373 24.077 4.71777C22.7327 5.44 21.9367 6.35884 21.6414 7.23926L3.94906 60H59.4901C61.4104 60 63.1551 59.5509 64.4842 58.8369C65.8285 58.1147 66.6245 57.1959 66.9198 56.3154L84.6112 3.55469H29.0711Z" fill="black"/>
<path d="M66.3098 31.7754C65.384 36.2404 63.1901 40.3951 60.1812 43.8656L46.401 33.3892L42.2003 53.6413C41.3764 53.7316 40.5475 53.7773 39.7173 53.7773C38.887 53.7773 38.0797 53.7316 37.2928 53.6413L41.4936 33.3892L23.365 43.8669C21.7962 40.3976 21.3264 36.243 22.2521 31.7767C23.1778 27.3105 25.3718 23.157 28.3794 19.6865L42.1608 30.1667L46.3616 9.91342C47.1854 9.82313 48.0131 9.77734 48.842 9.77734C49.671 9.77734 50.4821 9.82313 51.269 9.91342L47.0683 30.1654L65.1943 19.6878C66.7631 23.157 67.2342 27.3117 66.3085 31.778L66.3098 31.7754ZM30.7262 42.9907C30.6396 42.8813 30.5543 42.7707 30.4702 42.6588L24.5696 46.0682C26.8119 49.5235 30.2983 52.0516 34.6379 53.1567L35.9634 46.7677C35.6897 46.6672 35.421 46.5566 35.1587 46.437C33.4193 45.6511 31.9142 44.4888 30.7249 42.9907H30.7262ZM53.1867 42.9907C51.1022 44.7151 48.7847 45.9919 46.3832 46.7664L45.0577 53.1567C49.8543 52.0504 54.39 49.5235 58.0636 46.0682L53.5789 42.6588C53.449 42.7707 53.3178 42.8826 53.1854 42.9907H53.1867ZM57.8382 20.5589C57.9261 20.6696 58.0101 20.7802 58.0929 20.8921L63.9923 17.4827C61.7525 14.0274 58.2648 11.5005 53.9265 10.3941L52.6009 16.7832C54.6803 17.5577 56.4681 18.8358 57.8369 20.5589H57.8382ZM35.379 20.5589C37.4634 18.8345 39.7822 17.5577 42.1837 16.7819L43.5093 10.3941C38.7113 11.4992 34.1757 14.0261 30.4995 17.4814L34.9855 20.8921C35.1141 20.7802 35.2453 20.6683 35.379 20.5589Z" fill="black"/>
<defs>
<linearGradient id="paint0_linear_367_9" x1="26.7079" y1="59.7723" x2="43.3515" y2="2.89315" gradientUnits="userSpaceOnUse">
<stop stop-color="#C4C4C4"/>
<stop offset="0.18" stop-color="white"/>
<stop offset="0.5" stop-color="#999999"/>
<stop offset="0.78" stop-color="white"/>
<stop offset="1" stop-color="#D9D9D9"/>
</linearGradient>
</defs>
</svg>
