<?xml version="1.0" encoding="UTF-8"?>
<svg id="Layer_2" data-name="Layer 2" xmlns="http://www.w3.org/2000/svg" xmlns:xlink="http://www.w3.org/1999/xlink" viewBox="0 0 846.28 774.42">
  <defs>
    <style>
      .cls-1 {
        fill: url(#linear-gradient);
      }

      .cls-2 {
        fill: #f8101d;
      }
    </style>
    <linearGradient id="linear-gradient" x1="312.1" y1="713.98" x2="573.06" y2="105.06" gradientUnits="userSpaceOnUse">
      <stop offset="0" stop-color="#c4c4c4"/>
      <stop offset=".18" stop-color="#fff"/>
      <stop offset=".5" stop-color="#b5c3c6"/>
      <stop offset=".78" stop-color="#fff"/>
      <stop offset="1" stop-color="#d9d9d9"/>
    </linearGradient>
  </defs>
  <g id="Layer_1-2" data-name="Layer 1">
    <g>
      <path class="cls-1" d="M578.42,758.13H109.26c-6.41,0-11.16-5.94-9.76-12.2L250.18,76.83c7.97-35.39,39.4-60.54,75.68-60.54h469.16c6.41,0,11.16,5.94,9.76,12.2l-150.67,669.1c-7.97,35.39-39.4,60.54-75.68,60.54Z"/>
      <path d="M578.42,774.42H109.26c-8.03,0-15.52-3.6-20.54-9.87s-6.88-14.37-5.12-22.2L234.28,73.25c4.66-20.71,16.36-39.42,32.95-52.69C283.81,7.3,304.63,0,325.86,0h469.16c8.03,0,15.52,3.6,20.54,9.87,5.02,6.27,6.88,14.37,5.12,22.2l-150.67,669.1c-4.66,20.71-16.37,39.42-32.95,52.69s-37.4,20.57-58.64,20.57ZM117.13,741.83h461.29c28.86,0,53.45-19.66,59.79-47.82L787.15,32.59h-461.29c-28.86,0-53.45,19.66-59.79,47.82L117.13,741.83Z"/>
      <g>
        <g>
          <path d="M770.09,612.21l39.34,75.23h-97.47l-6.31-14.33-12.42,14.33h-89.22c-8.41,1.79-17.58,2.69-27.45,2.69-28.45,0-49.87-7.3-63.69-21.68l-4.11,18.99h-237.92l1.47-6.84c-13,6.33-28.22,9.53-45.33,9.53-13.14,0-24.8-1.83-34.89-5.47l1.07,2.78h-98.31l-3.78-14.78-3.21,14.78H0l43.42-202.04h87.89l-9.53,44.37.85-.75h93.09c7.76-1.72,16.02-2.58,24.73-2.58,26.34,0,46.62,7.37,60.28,21.89l4.15-19.31h78.03c6.38-1.72,13-2.58,19.83-2.58,11.26,0,21.54,2.79,30.56,8.29,1.34.82,2.63,1.69,3.87,2.62,3.54-2.12,7.02-3.85,10.48-5.24,9.41-3.76,19.49-5.67,29.96-5.67,16.61,0,29.85,5.11,39.33,15.18,2.15,2.29,4.06,4.72,5.71,7.28.82-.72,1.66-1.42,2.51-2.1,9.87-7.91,20.05-13.41,30.24-16.33,9.34-2.67,20.12-4.03,32.04-4.03,15.49,0,28.85,2.21,39.98,6.59l-2.09-4.01h97.6l3.92,9.19,7.96-9.19h111.47l-76.19,83.19Z"/>
          <g>
            <path class="cls-2" d="M181.03,551.09l-48.91,39.53,28.87,74.76h-49.01l-12.28-48.04-23.27,18.74-6.36,29.3H27.31l33.93-157.92h42.76l-17.56,81.76.43.54,44.06-38.67h50.09Z"/>
            <path class="cls-2" d="M240.45,548.5c20.47,0,35.39,5.17,44.76,15.51,9.37,10.34,14.06,22.44,14.06,36.3,0,10.56-2.69,21.29-8.08,32.21-5.39,10.92-13.48,19.57-24.29,25.96-10.81,6.39-24.11,9.59-39.91,9.59-20.04,0-34.83-4.94-44.38-14.81-9.55-9.87-14.33-22.17-14.33-36.89,0-11.56,2.85-22.73,8.56-33.5,5.71-10.77,13.99-19.19,24.83-25.26,10.84-6.07,23.77-9.1,38.78-9.1ZM229.78,638.45c8.19,0,14.69-4.18,19.5-12.55,4.81-8.37,7.22-17.65,7.22-27.85,0-7.4-1.83-12.58-5.49-15.57-3.66-2.98-7.72-4.47-12.17-4.47-9.26,0-16.21,4.2-20.84,12.6-4.63,8.4-6.95,16.99-6.95,25.75,0,6.32,1.81,11.58,5.44,15.78,3.63,4.2,8.06,6.3,13.3,6.3Z"/>
            <path class="cls-2" d="M433.22,567.89c8.26-7.47,15.8-12.57,22.62-15.3,6.82-2.73,14.07-4.09,21.76-4.09,10.34,0,18.1,2.75,23.27,8.24s7.76,12.16,7.76,19.98c0,4.67-.47,9.19-1.4,13.57l-16.27,75.08h-44.06l10.56-48.8c2.66-12.42,4.13-19.82,4.42-22.19.29-2.37.43-4.02.43-4.96,0-5.96-2.8-8.94-8.4-8.94-6.54,0-11.94,2.73-16.21,8.19-4.27,5.46-7.67,14.08-10.18,25.85l-10.88,50.84h-44.06l10.34-47.94c2.73-12.85,4.25-20.47,4.58-22.84.32-2.37.49-4.16.49-5.39,0-5.82-2.95-8.72-8.83-8.72-4.45,0-9.14,2.28-14.06,6.84-4.92,4.56-8.56,12.3-10.93,23.21l-11.85,54.83h-44.17l24.56-114.29h40.83l-3.55,16.37.43.43c12.57-12.93,26.68-19.39,42.33-19.39,7.18,0,13.54,1.69,19.07,5.06,5.53,3.38,9.33,8.15,11.42,14.33Z"/>
            <path class="cls-2" d="M640.33,636.08c-6.39,11.35-14.74,19.52-25.04,24.51-10.31,4.99-23.21,7.49-38.73,7.49-22.55,0-38.58-5.08-48.1-15.24-9.52-10.16-14.27-22.6-14.27-37.33,0-10.2,2.22-19.8,6.68-28.82,4.45-9.01,10.48-16.57,18.1-22.67,7.61-6.1,15.12-10.21,22.51-12.33,7.4-2.12,16.05-3.18,25.96-3.18,21.33,0,36.62,4.63,45.89,13.9,9.26,9.26,13.9,20.65,13.9,34.15,0,4.45-.97,12.1-2.91,22.95h-87.15c1.22,15.3,8.08,22.94,20.57,22.94,8.47,0,15.22-3.45,20.25-10.34l42.33,3.99ZM603.7,598.27c.5-1.58.75-3.77.75-6.57,0-5.82-1.74-10.21-5.22-13.2-3.48-2.98-7.77-4.47-12.87-4.47-5.39,0-10.34,2.03-14.87,6.09-4.52,4.06-7.97,10.11-10.34,18.15h42.55Z"/>
            <path class="cls-2" d="M796.16,551.09l-52.78,57.63,29.62,56.66h-46.64l-14.54-33.07-28.65,33.07h-50.95l56.66-62.26-27.15-52.03h46.64l12.06,28.22,24.45-28.22h51.27Z"/>
          </g>
        </g>
        <path d="M662.03,276.82c-7.34,36.66-25.49,70.77-50.64,99.25l-38.06-27.68-80.2-58.33-33.3,166.26c-6.99.74-14.02,1.11-21.07,1.11s-13.91-.37-20.61-1.11l33.31-166.27-103.59,58.33-49.16,27.68c-13.73-28.48-18.21-62.59-10.87-99.25,7.34-36.66,25.49-70.77,50.63-99.25l38.06,27.68,80.21,58.35,33.31-166.27c6.99-.74,14.01-1.11,21.05-1.11s13.93.37,20.62,1.11l-33.3,166.26,103.57-58.33,49.15-27.68c13.73,28.48,18.22,62.59,10.87,99.25ZM361.13,368.89c-.75-.89-1.48-1.81-2.21-2.73l-49.71,27.99c19.45,28.36,49.36,49.12,86.35,58.19l10.51-52.45c-2.34-.83-4.63-1.74-6.87-2.71-14.86-6.46-27.79-16-38.06-28.29ZM551.88,368.89c-17.5,14.16-37.03,24.64-57.34,31l-10.51,52.46c40.61-9.08,78.83-29.83,109.63-58.19l-38.49-27.99c-1.09.92-2.19,1.83-3.3,2.73ZM588.77,184.75c.75.9,1.49,1.82,2.21,2.74l49.7-27.99c-19.43-28.36-49.34-49.11-86.32-58.19l-10.51,52.45c17.75,6.36,33.09,16.85,44.92,31ZM398.02,184.75c17.5-14.16,37.04-24.64,57.35-31l10.51-52.44c-40.62,9.07-78.85,29.82-109.66,58.19l38.5,28c1.08-.92,2.19-1.83,3.3-2.74Z"/>
      </g>
    </g>
  </g>
</svg>