<?xml version="1.0" encoding="UTF-8"?>
<svg id="Layer_2" data-name="Layer 2" xmlns="http://www.w3.org/2000/svg" viewBox="0 0 846.27 204.73">
  <defs>
    <style>
      .cls-1 {
        fill: #f8101d;
      }
    </style>
  </defs>
  <g id="Layer_1-2" data-name="Layer 1">
    <g>
      <path d="M846.27,43.63h-111.47l-7.96,9.18-3.92-9.18h-97.6l2.09,4.01c-11.13-4.38-24.49-6.59-39.98-6.59-11.92,0-22.69,1.36-32.04,4.03-10.19,2.92-20.37,8.41-30.24,16.33-.85.69-1.67,1.41-2.5,2.12-1.66-2.57-3.57-5.01-5.72-7.3-9.48-10.07-22.71-15.18-39.33-15.18-10.47,0-20.54,1.91-29.96,5.67-3.46,1.38-6.94,3.12-10.48,5.24-1.24-.93-2.53-1.8-3.87-2.62-9.02-5.5-19.3-8.29-30.56-8.29-6.83,0-13.45.87-19.83,2.59h-78.03l-4.15,19.32c-13.68-14.52-33.94-21.9-60.28-21.9-8.7,0-16.94.87-24.7,2.59h-93.12l-.85.75L131.3,0H43.41L0,202.04h87.86l3.21-14.78,3.78,14.78h98.31l-1.07-2.77c10.1,3.63,21.75,5.47,34.89,5.47,17.11,0,32.32-3.21,45.33-9.54l-1.47,6.85h237.92l4.12-19.01c13.83,14.4,35.24,21.71,63.68,21.71,9.87,0,19.03-.91,27.44-2.69h89.23l12.42-14.33,6.3,14.33h97.47l-39.33-75.23,76.18-83.18Z"/>
      <g>
        <path class="cls-1" d="M181.02,65.69l-48.91,39.53,28.87,74.76h-49.01l-12.28-48.04-23.27,18.74-6.36,29.3H27.31L61.24,22.06h42.76l-17.56,81.76.43.54,44.06-38.67h50.09Z"/>
        <path class="cls-1" d="M240.44,63.1c20.47,0,35.39,5.17,44.76,15.51,9.37,10.34,14.06,22.44,14.06,36.3,0,10.56-2.69,21.29-8.08,32.21-5.39,10.92-13.48,19.57-24.29,25.96-10.81,6.39-24.11,9.59-39.91,9.59-20.04,0-34.83-4.94-44.38-14.81-9.55-9.88-14.33-22.17-14.33-36.89,0-11.56,2.85-22.73,8.56-33.5,5.71-10.77,13.99-19.19,24.83-25.26,10.84-6.07,23.77-9.1,38.78-9.1ZM229.78,153.05c8.19,0,14.69-4.18,19.5-12.55,4.81-8.37,7.22-17.65,7.22-27.85,0-7.4-1.83-12.59-5.49-15.57-3.66-2.98-7.72-4.47-12.17-4.47-9.26,0-16.21,4.2-20.84,12.6-4.63,8.4-6.95,16.98-6.95,25.75,0,6.32,1.81,11.58,5.44,15.78,3.63,4.2,8.06,6.3,13.3,6.3Z"/>
        <path class="cls-1" d="M433.22,82.49c8.26-7.47,15.8-12.57,22.62-15.3,6.82-2.73,14.07-4.09,21.76-4.09,10.34,0,18.1,2.75,23.27,8.24s7.76,12.16,7.76,19.98c0,4.67-.47,9.19-1.4,13.57l-16.27,75.08h-44.06l10.56-48.8c2.66-12.42,4.13-19.82,4.42-22.19.29-2.37.43-4.02.43-4.96,0-5.96-2.8-8.94-8.4-8.94-6.54,0-11.94,2.73-16.21,8.19-4.27,5.46-7.67,14.08-10.18,25.85l-10.88,50.84h-44.06l10.34-47.94c2.73-12.85,4.25-20.47,4.58-22.84.32-2.37.49-4.16.49-5.39,0-5.82-2.95-8.72-8.83-8.72-4.45,0-9.14,2.28-14.06,6.84-4.92,4.56-8.56,12.3-10.93,23.21l-11.85,54.83h-44.17l24.56-114.29h40.83l-3.55,16.37.43.43c12.57-12.93,26.68-19.39,42.33-19.39,7.18,0,13.54,1.69,19.07,5.06,5.53,3.38,9.33,8.15,11.42,14.33Z"/>
        <path class="cls-1" d="M640.32,150.68c-6.39,11.35-14.74,19.52-25.04,24.51-10.31,4.99-23.21,7.49-38.73,7.49-22.55,0-38.58-5.08-48.1-15.24-9.52-10.16-14.27-22.6-14.27-37.33,0-10.2,2.22-19.8,6.68-28.81,4.45-9.01,10.48-16.57,18.1-22.68,7.61-6.1,15.12-10.21,22.51-12.33,7.4-2.12,16.05-3.18,25.96-3.18,21.33,0,36.62,4.63,45.89,13.9,9.26,9.26,13.9,20.65,13.9,34.15,0,4.46-.97,12.1-2.91,22.95h-87.15c1.22,15.3,8.08,22.95,20.57,22.95,8.47,0,15.22-3.45,20.25-10.34l42.33,3.99ZM603.7,112.87c.5-1.58.75-3.77.75-6.57,0-5.82-1.74-10.21-5.22-13.2-3.48-2.98-7.77-4.47-12.87-4.47-5.39,0-10.34,2.03-14.87,6.09s-7.97,10.11-10.34,18.15h42.55Z"/>
        <path class="cls-1" d="M796.15,65.69l-52.78,57.63,29.62,56.66h-46.64l-14.54-33.07-28.65,33.07h-50.95l56.66-62.26-27.15-52.03h46.64l12.06,28.22,24.45-28.22h51.27Z"/>
      </g>
    </g>
  </g>
</svg>