<?xml version="1.0" encoding="UTF-8"?>
<svg id="Layer_2" data-name="Layer 2" xmlns="http://www.w3.org/2000/svg" viewBox="0 0 133.15 133.15">
  <defs>
    <style>
      .cls-1 {
        fill: #ffbd1a;
      }
    </style>
  </defs>
  <g id="Layer_1-2" data-name="Layer 1">
    <path class="cls-1" d="M133.15,75.7h-10.81c-.68,10.59-3.83,20.28-9.46,29.06-5.63,8.79-13.01,15.71-22.14,20.78-9.12,5.07-19.09,7.6-29.91,7.6s-20.9-2.76-30.25-8.28c-9.35-5.52-16.79-12.95-22.3-22.3C2.76,93.22,0,83.13,0,72.32s2.53-20.78,7.6-29.91c5.07-9.12,12-16.5,20.78-22.14,8.79-5.63,18.47-8.79,29.06-9.46V0h3.72c13.06,0,25.12,3.21,36.16,9.63,11.04,6.42,19.77,15.15,26.19,26.19,6.42,11.04,9.63,23.1,9.63,36.16v3.72ZM87.36,119.29c7.99-4.5,14.47-10.59,19.43-18.25,4.95-7.66,7.77-16.1,8.45-25.35h-14.53v-3.72c0-7.21-1.75-13.86-5.24-19.94-3.5-6.08-8.28-10.87-14.36-14.36-6.08-3.49-12.73-5.24-19.94-5.24h-3.72v-14.53c-9.24.68-17.69,3.5-25.35,8.45-7.66,4.96-13.74,11.44-18.25,19.43-4.51,8-6.76,16.79-6.76,26.36s2.42,18.53,7.27,26.87c4.84,8.34,11.43,14.93,19.77,19.77,8.33,4.85,17.35,7.27,27.04,7.27s18.19-2.25,26.19-6.76ZM81.44,51.7c5.63,5.63,8.45,12.39,8.45,20.28s-2.82,14.65-8.45,20.28c-5.63,5.64-12.39,8.45-20.28,8.45s-14.65-2.81-20.28-8.45c-5.63-5.63-8.45-12.39-8.45-20.28s2.81-14.64,8.45-20.28c5.63-5.63,12.39-8.45,20.28-8.45s14.64,2.82,20.28,8.45ZM76.37,87.19c4.28-4.28,6.42-9.35,6.42-15.21s-2.14-10.92-6.42-15.21c-4.28-4.28-9.35-6.42-15.21-6.42s-10.93,2.14-15.21,6.42c-4.28,4.28-6.42,9.35-6.42,15.21s2.14,10.93,6.42,15.21c4.28,4.28,9.35,6.42,15.21,6.42s10.92-2.14,15.21-6.42ZM52.89,69.45c-.79-.79-1.64-1.18-2.53-1.18s-1.75.4-2.53,1.18c-.79.79-1.18,1.64-1.18,2.53s.39,1.75,1.18,2.53c.79.79,1.63,1.18,2.53,1.18s1.74-.39,2.53-1.18,1.18-1.63,1.18-2.53-.4-1.74-1.18-2.53ZM63.7,58.63c-.79-.79-1.64-1.18-2.53-1.18s-1.75.4-2.53,1.18-1.18,1.64-1.18,2.53.39,1.75,1.18,2.54c.79.79,1.63,1.18,2.53,1.18s1.74-.39,2.53-1.18c.79-.79,1.18-1.63,1.18-2.54s-.4-1.74-1.18-2.53ZM63.7,80.26c-.79-.79-1.64-1.18-2.53-1.18s-1.75.4-2.53,1.18-1.18,1.64-1.18,2.53.39,1.75,1.18,2.53c.79.79,1.63,1.18,2.53,1.18s1.74-.39,2.53-1.18c.79-.79,1.18-1.63,1.18-2.53s-.4-1.74-1.18-2.53ZM126.05,68.26c-.68-10.81-3.78-20.78-9.29-29.91-5.52-9.12-12.84-16.44-21.97-21.97-9.12-5.52-19.09-8.62-29.91-9.29v18.25c11.49.9,21.29,5.41,29.4,13.52,8.11,8.11,12.61,17.91,13.52,29.4h18.25ZM74.52,69.45c-.79-.79-1.64-1.18-2.53-1.18s-1.75.4-2.53,1.18c-.79.79-1.18,1.64-1.18,2.53s.39,1.75,1.18,2.53c.79.79,1.63,1.18,2.53,1.18s1.74-.39,2.53-1.18c.79-.79,1.18-1.63,1.18-2.53s-.4-1.74-1.18-2.53Z"/>
  </g>
</svg>