<?xml version="1.0" encoding="UTF-8"?>
<svg id="Layer_2" data-name="Layer 2" xmlns="http://www.w3.org/2000/svg" viewBox="0 0 64.88 143.96">
  <defs>
    <style>
      .cls-1 {
        fill: #ffbd1a;
      }
    </style>
  </defs>
  <g id="Layer_1-2" data-name="Layer 1">
    <path class="cls-1" d="M43.26,101.04c4.95,4.96,7.43,10.93,7.43,17.91s-2.48,12.9-7.43,17.74c-4.96,4.84-10.93,7.27-17.91,7.27s-12.96-2.42-17.91-7.27c-4.96-4.84-7.43-10.76-7.43-17.74s2.48-12.95,7.43-17.91V17.91c0-4.95,1.74-9.18,5.24-12.67C16.16,1.75,20.39,0,25.35,0s9.18,1.75,12.67,5.24c3.49,3.5,5.24,7.72,5.24,12.67v83.13ZM38.02,131.63c3.49-3.49,5.24-7.83,5.24-13.01s-1.92-9.57-5.75-13.18l-1.35-1.01V17.91c0-2.93-1.07-5.46-3.21-7.6-2.14-2.14-4.68-3.21-7.6-3.21s-5.47,1.07-7.6,3.21c-2.14,2.14-3.21,4.68-3.21,7.6v86.51l-1.35,1.01c-3.83,3.61-5.75,8-5.75,13.18s1.74,9.52,5.24,13.01c3.49,3.5,7.71,5.24,12.67,5.24s9.18-1.74,12.67-5.24ZM34.13,112.53c1.35,1.81,2.03,3.95,2.03,6.42,0,2.93-1.07,5.46-3.21,7.6-2.14,2.14-4.68,3.21-7.6,3.21s-5.47-1.07-7.6-3.21c-2.14-2.14-3.21-4.67-3.21-7.6,0-2.48.68-4.62,2.03-6.42,1.35-1.8,3.04-3.04,5.07-3.72v-58.46h7.43v58.46c2.03.68,3.72,1.92,5.07,3.72ZM27.88,121.32c.79-.68,1.18-1.52,1.18-2.53s-.4-1.86-1.18-2.53c-.79-.68-1.64-1.01-2.53-1.01s-1.75.34-2.53,1.01c-.79.68-1.18,1.52-1.18,2.53s.39,1.86,1.18,2.53c.79.68,1.63,1.01,2.53,1.01s1.74-.34,2.53-1.01ZM50.69,14.19v7.43h14.19v-7.43h-14.19ZM50.69,39.54h14.19v-7.1h-14.19v7.1ZM50.69,57.45h14.19v-7.1h-14.19v7.1ZM50.69,75.7h14.19v-7.43h-14.19v7.43ZM50.69,93.61h14.19v-7.1h-14.19v7.1Z"/>
  </g>
</svg>