<?xml version="1.0" encoding="UTF-8"?>
<svg id="Layer_2" data-name="Layer 2" xmlns="http://www.w3.org/2000/svg" viewBox="0 0 144.3 144.3">
  <defs>
    <style>
      .cls-1 {
        fill: #ffbd1a;
      }
    </style>
  </defs>
  <g id="Layer_1-2" data-name="Layer 1">
    <path class="cls-1" d="M16.56,144.3c-4.51,0-8.4-1.64-11.66-4.9-3.27-3.26-4.9-7.15-4.9-11.66s1.57-8.33,4.73-11.49l43.26-43.26,5.41,5.07L10.14,121.32c-1.81,1.81-2.7,4-2.7,6.59s.84,4.73,2.53,6.42,3.83,2.53,6.42,2.53,4.78-.9,6.59-2.7l43.26-43.26,5.07,5.41-43.26,43.26c-3.16,3.15-6.99,4.73-11.49,4.73ZM144.3,115.57v2.7l-1.69,7.43c-.68,1.81-1.47,3.38-2.37,4.73l-16.56-16.22c-1.13-1.35-2.59-2.03-4.39-2.03s-3.38.68-4.73,2.03-2.03,2.93-2.03,4.73.68,3.27,2.03,4.39l16.22,16.56c-1.35.9-2.93,1.69-4.73,2.37l-3.38,1.01-6.76.68c-7.66,0-14.31-2.76-19.94-8.28-5.63-5.52-8.45-12.22-8.45-20.11l.34-4.39,1.69-5.75-50.69-50.69-4.39,1.35-5.75.68c-7.89,0-14.59-2.81-20.11-8.45C3.09,42.7.34,36.05.34,28.39v-2.7l1.69-7.43c.68-1.8,1.46-3.38,2.37-4.73l16.56,16.22c1.13,1.35,2.59,2.03,4.39,2.03s3.38-.68,4.73-2.03c1.35-1.35,2.03-2.93,2.03-4.73s-.68-3.26-2.03-4.39L13.86,4.06c1.35-.9,2.93-1.69,4.73-2.37l3.38-1.01,6.76-.68c7.66,0,14.3,2.76,19.94,8.28,5.63,5.52,8.45,12.22,8.45,20.11l-.34,4.39-1.69,5.75,50.69,50.69,4.39-1.35,5.74-.68c7.88,0,14.58,2.82,20.11,8.45,5.52,5.63,8.28,12.28,8.28,19.94ZM137.2,115.57c0-5.86-2.09-10.81-6.25-14.87-4.17-4.06-9.18-6.08-15.04-6.08-3.38,0-6.54.79-9.46,2.37l-2.37,1.01-10.81-10.81-46.97-46.97,1.01-2.37c1.57-2.93,2.37-6.08,2.37-9.46,0-5.86-2.03-10.87-6.08-15.04-4.06-4.17-9.01-6.25-14.87-6.25h-1.69l8.11,8.11c2.7,2.7,4.06,5.97,4.06,9.8s-1.35,7.1-4.06,9.8c-2.7,2.7-5.97,4.06-9.8,4.06s-7.1-1.35-9.8-4.06l-8.11-8.11v1.69c0,5.86,2.08,10.81,6.25,14.87,4.17,4.06,9.18,6.08,15.04,6.08,3.38,0,6.53-.79,9.46-2.37l2.37-1.01,46.97,46.97,10.81,10.81-1.01,2.37c-1.58,2.93-2.37,6.08-2.37,9.46,0,5.86,2.03,10.87,6.08,15.04,4.06,4.17,9.01,6.25,14.87,6.25h1.69l-8.11-8.11c-2.7-2.7-4.06-5.97-4.06-9.8s1.35-7.1,4.06-9.8c2.7-2.7,5.97-4.06,9.8-4.06s7.1,1.35,9.8,4.06l8.11,8.11v-1.69ZM116.93,43.26h11.49l15.55-28.39L129.43.34l-28.39,15.55v11.49l-23.99,23.99,5.07,5.07,26.36-26.36v-10.14l19.6-10.48,6.76,6.76-10.48,19.6h-10.14l-26.36,26.36,5.07,5.07,23.99-23.99Z"/>
  </g>
</svg>