<?xml version="1.0" encoding="UTF-8"?>
<svg id="Layer_2" data-name="Layer 2" xmlns="http://www.w3.org/2000/svg" viewBox="0 0 143.96 104.42">
  <defs>
    <style>
      .cls-1 {
        fill: #ffbd1a;
      }
    </style>
  </defs>
  <g id="Layer_1-2" data-name="Layer 1">
    <path class="cls-1" d="M143.96,36.16v68.26h-79.42l-18.59-17.91h-28.05v-21.63H7.1v14.53H0v-36.16h7.1v14.53h10.81v-21.63h28.05l18.59-18.25h14.53V7.1h-14.19V0h35.82v7.1h-14.19v10.81h19.6l17.91,18.25h19.94ZM25.01,79.42h18.25v-36.16h-18.25v36.16ZM64.88,94.62V27.71l-14.53,14.19v38.86l14.53,13.86ZM71.98,25.35v35.82h64.88v-17.91h-15.88l-18.25-17.91h-30.75ZM79.08,97.33v-28.72h-7.1v28.72h7.1ZM108.14,97.33v-28.72h-7.43v10.81h-7.1v-10.81h-7.1v28.72h7.1v-10.81h7.1v10.81h7.43ZM136.86,97.33v-28.72h-7.1v10.81h-7.43v-10.81h-7.1v28.72h7.1v-10.81h7.43v10.81h7.1Z"/>
  </g>
</svg>