<?xml version="1.0" encoding="UTF-8"?>
<svg id="Layer_2" data-name="Layer 2" xmlns="http://www.w3.org/2000/svg" viewBox="0 0 143.96 61.17">
  <defs>
    <style>
      .cls-1 {
        fill: #ffbd1a;
      }
    </style>
  </defs>
  <g id="Layer_1-2" data-name="Layer 1">
    <path class="cls-1" d="M123.69,21.63l-39.54,32.44H21.63v-28.73H0V3.72h28.72v10.81h14.53v-7.1h-7.43V0h21.63v7.43h-7.1v7.1h26.7l6.08,6.08L114.22,0h22.64v21.63h-13.18ZM21.63,18.25v-7.43H7.1v7.43h14.53ZM121.32,14.53h8.45v-7.1h-13.52l-34.13,22.64-8.11-8.45H28.72v25.35h52.72L121.32,14.53ZM134.16,30.08c6.53,6.54,9.8,12.84,9.8,18.92,0,3.38-1.24,6.25-3.72,8.62-2.48,2.37-5.41,3.55-8.79,3.55s-6.31-1.18-8.79-3.55c-2.48-2.37-3.72-5.24-3.72-8.62,0-4.06,1.57-8.33,4.73-12.84,1.57-2.48,3.38-4.61,5.41-6.42l2.37-2.03,2.37,2.03.34.34ZM135.34,52.55c1.01-1.01,1.52-2.2,1.52-3.55,0-3.15-1.81-6.87-5.41-11.15-3.61,4.28-5.41,8-5.41,11.15,0,1.35.51,2.53,1.52,3.55s2.31,1.52,3.89,1.52,2.87-.51,3.89-1.52Z"/>
  </g>
</svg>