<?xml version="1.0" encoding="UTF-8"?>
<svg id="Layer_2" data-name="Layer 2" xmlns="http://www.w3.org/2000/svg" viewBox="0 0 140.58 93.95">
  <defs>
    <style>
      .cls-1 {
        fill: #ffbd1a;
      }
    </style>
  </defs>
  <g id="Layer_1-2" data-name="Layer 1">
    <path class="cls-1" d="M84.15,9.46c2.93,4.96,5.29,11.49,7.1,19.6,1.57,6.99,2.37,12.96,2.37,17.91s-.79,10.93-2.37,17.91c-1.81,8.11-4.17,14.65-7.1,19.6-3.61,6.31-7.66,9.46-12.17,9.46-10.14,0-20.17-2.03-30.08-6.08-6.99-2.93-13.52-6.53-19.6-10.81-6.99-4.95-12.45-10.14-16.39-15.55-3.94-5.41-5.91-10.25-5.91-14.53s1.97-9.12,5.91-14.53c3.94-5.41,9.4-10.59,16.39-15.55,6.08-4.28,12.61-7.88,19.6-10.81C51.82,2.03,61.84,0,71.98,0c4.5,0,8.56,3.16,12.17,9.46ZM78.23,80.43c2.37-4.06,4.22-9.01,5.58-14.87,1.8-6.53,2.7-12.73,2.7-18.59s-.9-12.05-2.7-18.59c-1.35-5.86-3.21-10.81-5.58-14.87s-4.45-6.08-6.25-6.08c-7.66,0-15.43,1.35-23.32,4.06-7.89,2.7-15.32,6.54-22.3,11.49-6.08,4.28-10.93,8.79-14.53,13.52-3.16,4.28-4.73,7.77-4.73,10.48s1.57,6.2,4.73,10.48c3.6,4.73,8.45,9.24,14.53,13.52,6.98,4.96,14.42,8.79,22.3,11.49,7.88,2.7,15.66,4.06,23.32,4.06,1.8,0,3.89-2.03,6.25-6.08ZM140.24,64.88h-39.88v7.43h39.88v-7.43ZM140.58,21.63h-39.88v7.43h39.88v-7.43ZM140.58,43.26h-39.88v7.43h39.88v-7.43Z"/>
  </g>
</svg>