<?xml version="1.0" encoding="UTF-8"?>
<svg id="Layer_2" data-name="Layer 2" xmlns="http://www.w3.org/2000/svg" viewBox="0 0 143.62 143.62">
  <defs>
    <style>
      .cls-1 {
        fill: #ffbd1a;
      }
    </style>
  </defs>
  <g id="Layer_1-2" data-name="Layer 1">
    <path class="cls-1" d="M107.8,9.63c11.04,6.42,19.77,15.15,26.19,26.19,6.42,11.04,9.63,23.04,9.63,35.99s-3.21,24.95-9.63,35.99c-6.42,11.04-15.15,19.77-26.19,26.19-11.04,6.42-23.04,9.63-35.99,9.63s-24.96-3.21-35.99-9.63c-11.04-6.42-19.77-15.15-26.19-26.19C3.21,96.77,0,84.77,0,71.81s3.21-24.95,9.63-35.99c6.42-11.04,15.15-19.77,26.19-26.19C46.86,3.21,58.91,0,71.98,0s24.78,3.21,35.82,9.63ZM104.42,127.91c9.91-5.75,17.74-13.57,23.49-23.49,5.75-9.91,8.62-20.78,8.62-32.61s-2.93-22.64-8.79-32.44c-5.86-9.8-13.74-17.63-23.66-23.49-9.92-5.86-20.67-8.79-32.27-8.79s-22.36,2.93-32.27,8.79c-9.92,5.86-17.8,13.75-23.66,23.66-5.86,9.92-8.79,20.67-8.79,32.27s2.92,22.36,8.79,32.27c5.86,9.92,13.69,17.8,23.49,23.66,9.8,5.86,20.67,8.79,32.61,8.79s22.53-2.87,32.44-8.62ZM50.01,82.12l-13.86,24.33c-.68.9-1.52,1.35-2.53,1.35s-1.97-.34-2.87-1.01c-4.73-4.5-8.23-10.48-10.48-17.91-1.58-4.95-2.37-9.8-2.37-14.53-.23-2.93-.12-4.95.34-6.08l.34-1.01c.45-.9,1.18-1.57,2.2-2.03,1.01-.45,1.97-.45,2.87,0l24.67,11.49c.9.45,1.57,1.24,2.03,2.37.22,1.13.11,2.14-.34,3.04ZM40.89,82.12l-15.21-7.1c0,3.61.62,7.38,1.86,11.32,1.24,3.95,2.98,7.49,5.24,10.65l8.11-14.87ZM60.49,51.03c-.23,1.13-.73,2.03-1.52,2.7-.79.68-1.75,1.01-2.87,1.01l-26.7-5.07c-1.13,0-1.97-.45-2.53-1.35-.57-.9-.85-1.91-.85-3.04l.34-1.01c.45-1.12,1.46-2.81,3.04-5.07,2.92-4.06,6.42-7.55,10.48-10.48,6.08-4.73,12.28-7.66,18.59-8.79h.34c1.12,0,2.08.34,2.87,1.01.79.68,1.29,1.47,1.52,2.37v1.01l-2.7,26.7ZM44.44,34.98c-3.04,2.37-5.69,5.02-7.94,7.94l16.56,3.04,1.69-16.9c-3.83,1.58-7.27,3.55-10.31,5.91ZM93.61,115.91c.68.9.85,1.92.51,3.04-.34,1.13-.96,1.92-1.86,2.37-5.86,2.93-12.62,4.39-20.28,4.39s-14.65-1.46-20.28-4.39l-1.01-.68c-.68-.68-1.01-1.57-1.01-2.7s.34-2.03,1.01-2.7l18.59-19.94c.68-.9,1.57-1.29,2.7-1.18,1.12.12,2.03.51,2.7,1.18l18.25,19.94.68.68ZM83.47,116.25l-11.49-12.5-11.83,12.5c3.83,1.13,7.77,1.69,11.83,1.69,3.83,0,7.66-.56,11.49-1.69ZM76.88,66.57c-1.47-1.35-3.16-2.03-5.07-2.03s-3.61.68-5.07,2.03c-1.47,1.35-2.2,3.04-2.2,5.07s.73,3.72,2.2,5.07c1.46,1.35,3.15,2.03,5.07,2.03s3.6-.68,5.07-2.03c1.46-1.35,2.2-3.04,2.2-5.07s-.73-3.72-2.2-5.07ZM81.44,23.32c0-1.12.45-2.03,1.35-2.7.9-.68,1.86-.96,2.87-.85,1.01.12,2.98.62,5.91,1.52,4.73,1.81,9.12,4.17,13.18,7.1,6.08,4.73,10.48,10.03,13.18,15.88l.34,1.01c.22.9.05,1.81-.51,2.7-.56.9-1.41,1.47-2.53,1.69l-27.04,4.73c-1.13.23-2.08,0-2.87-.68-.79-.68-1.18-1.57-1.18-2.7l-2.7-27.71ZM89.55,29.06l1.69,16.9,16.9-3.04c-2.48-3.15-5.3-5.86-8.45-8.11-2.93-2.48-6.31-4.39-10.14-5.75ZM125.71,68.26c.9,6.76.17,13.75-2.2,20.95-2.37,7.21-5.8,13.07-10.31,17.57-1.13.9-2.26,1.24-3.38,1.01-1.35-.22-2.26-.9-2.7-2.03l-13.52-23.99c-.45-.9-.51-1.86-.17-2.87.34-1.01,1.07-1.74,2.2-2.2l25.35-11.49c.9-.22,1.8-.05,2.7.51.9.57,1.46,1.41,1.69,2.53h.34ZM102.73,82.12l8.11,14.53c2.48-3.38,4.28-6.93,5.41-10.64,1.12-3.72,1.69-7.38,1.69-10.98l-15.21,7.1Z"/>
  </g>
</svg>